#N struct 1008template-marker float a float b;
#N struct 1010template-marker float a float b;
#N canvas 646 1231 450 300 10;
#X declare -path droidparty-abstrations;
#N canvas 637 456 450 300 x 1;
#X obj 7 277 declare -path droidparty-abstrations;
#X obj 7 13 router fx-one;
#N canvas 297 1626 450 462 net 1;
#X obj 10 409 == 0;
#X obj 74 274 r routed;
#X obj 74 296 list prepend send;
#X obj 74 318 list trim;
#X obj 10 364 t f f;
#X obj 37 386 s connected;
#X obj 10 10 netreceive -u 54877;
#X obj 10 342 netsend;
#X obj 10 252 list prepend connect;
#X obj 10 274 list trim;
#X obj 10 73 spigot 1;
#X obj 55 52 r \$0/listen;
#X obj 10 431 s \$0/listen;
#X obj 10 95 list trim;
#X obj 10 139 t a a;
#X obj 147 203 list split 1;
#X obj 147 227 s ip;
#X obj 147 181 list;
#X obj 128 117 r connected;
#X obj 128 139 sel 0 1;
#X msg 128 161 symbol -;
#X obj 166 364 list split 1;
#X obj 166 408 list;
#X obj 166 430 s;
#X obj 166 386 t b s;
#X obj 10 117 route ip;
#X connect 0 0 12 0;
#X connect 1 0 2 0;
#X connect 2 0 3 0;
#X connect 3 0 7 0;
#X connect 4 0 0 0;
#X connect 4 1 5 0;
#X connect 6 0 10 0;
#X connect 7 0 4 0;
#X connect 7 1 21 0;
#X connect 8 0 9 0;
#X connect 9 0 7 0;
#X connect 10 0 13 0;
#X connect 11 0 10 1;
#X connect 13 0 25 0;
#X connect 14 0 8 0;
#X connect 14 1 17 1;
#X connect 15 0 16 0;
#X connect 17 0 15 0;
#X connect 18 0 19 0;
#X connect 19 0 20 0;
#X connect 19 1 17 0;
#X connect 20 0 16 0;
#X connect 21 0 24 0;
#X connect 21 1 22 1;
#X connect 22 0 23 0;
#X connect 24 0 22 0;
#X connect 24 1 23 1;
#X connect 25 0 14 0;
#X restore 7 255 pd net;
#X obj 7 35 router fx-one/sel;
#X obj 7 73 router snatch-down;
#X obj 7 95 router snatch-val;
#X restore 7 268 pd x;
#X obj 8 10 touch 200 200 fx-one;
#X obj 8 222 taplist 200 32 x fx-one/sel reverb delay ghost chop;
#X obj 292 269 tgl 14 0 empty connected empty 17 7 0 10 -262144 -1
-1 0 1;
#X symbolatom 313 269 20 0 0 0 - ip -, f 20;
#X obj 223 222 touch 128 32 snatch;
#N canvas 1255 245 506 379 snatch-event-handler 0;
#X obj 126 37 unpack f f;
#X obj 153 99 sel -1;
#X obj 13 112 ==;
#X obj 209 66 t f f;
#X obj 236 88 == -1;
#X obj 13 164 == 0;
#X obj 13 140 &&;
#X obj 126 15 r snatch;
#X obj 13 332 s snatch-down;
#X obj 186 121 * 4;
#X obj 186 322 s snatch-pos;
#X obj 186 254 * 32;
#X obj 186 143 int;
#X obj 13 186 change;
#X obj 213 231 s snatch-val;
#X obj 186 189 t f f;
#X obj 186 165 clip 0 3;
#X obj 32 309 s snatch-down-pre;
#X msg 52 252 pos -100 -100;
#X obj 126 59 t f f;
#X obj 13 208 t f f f;
#X obj 52 230 sel 0;
#X obj 213 210 change;
#X obj 186 277 + 227;
#X msg 186 299 pos \$1 226;
#X connect 0 0 19 0;
#X connect 0 1 3 0;
#X connect 1 1 9 0;
#X connect 2 0 6 0;
#X connect 3 0 2 1;
#X connect 3 1 4 0;
#X connect 4 0 6 1;
#X connect 5 0 13 0;
#X connect 6 0 5 0;
#X connect 7 0 0 0;
#X connect 9 0 12 0;
#X connect 11 0 23 0;
#X connect 12 0 16 0;
#X connect 13 0 20 0;
#X connect 15 0 11 0;
#X connect 15 1 22 0;
#X connect 16 0 15 0;
#X connect 18 0 10 0;
#X connect 19 0 2 0;
#X connect 19 1 1 0;
#X connect 20 0 8 0;
#X connect 20 1 17 0;
#X connect 20 2 21 0;
#X connect 21 0 18 0;
#X connect 22 0 14 0;
#X connect 23 0 24 0;
#X connect 24 0 10 0;
#X restore 40 268 pd snatch-event-handler;
#X obj -100 -100 cnv 15 24 24 empty snatch-pos empty 20 12 0 14 -1
-66577 0;
#X symbolatom 303 45 20 0 0 0 s/0 slot/0 -, f 20;
#X symbolatom 303 65 20 0 0 0 s/1 slot/1 -, f 20;
#X symbolatom 303 85 20 0 0 0 s/2 slot/2 -, f 20;
#X symbolatom 303 105 20 0 0 0 s/3 slot/3 -, f 20;
#X symbolatom 303 135 20 0 0 0 s/4 slot/4 -, f 20;
#X symbolatom 303 155 20 0 0 0 s/5 slot/5 -, f 20;
#X symbolatom 303 175 20 0 0 0 s/6 slot/6 -, f 20;
#X symbolatom 303 195 20 0 0 0 s/7 slot/7 -, f 20;
