#N canvas 526 533 543 433 10;
#X obj 10 11 loadbang;
#X obj 10 245 metro 333;
#X obj 10 267 0;
#X obj 10 289 + 1;
#X floatatom 61 178 5 0 0 0 - - -, f 5;
#X obj 61 197 expr 60000 / $f1;
#X msg 242 63 bang;
#X obj 242 112 180;
#X obj 242 245 +;
#X floatatom 269 200 5 0 0 0 - - -, f 5;
#X obj 242 134 t f f;
#X text 240 8 bpm-slide = slide to bpm \; one beat at a time;
#X obj 10 401 s \$1/tick;
#X obj 242 41 r \$1/tick;
#X obj 284 134 r \$1/bpm-slide;
#X obj 61 156 r \$1/bpm;
#X obj 242 267 s \$1/bpm;
#X obj 257 88 r \$1/bpm;
#X obj 10 33 symbol \$1;
#X obj 269 156 -;
#X msg 10 58 bang \; \$1/bpm-slide 180 \; \$1/bpm 180 \;;
#X obj 269 178 expr -1 * $f1 / abs(if($f1>0 \, $f1 \, 1));
#X obj 61 221 / 96;
#X obj 10 311 t f f;
#X obj 10 333 / 96;
#X obj 10 355 int;
#X obj 10 377 change;
#X obj 46 333 s \$1/subtick;
#X connect 0 0 18 0;
#X connect 1 0 2 0;
#X connect 2 0 3 0;
#X connect 3 0 2 1;
#X connect 3 0 23 0;
#X connect 4 0 5 0;
#X connect 5 0 22 0;
#X connect 6 0 7 0;
#X connect 7 0 10 0;
#X connect 8 0 16 0;
#X connect 9 0 8 1;
#X connect 10 0 8 0;
#X connect 10 1 19 0;
#X connect 13 0 6 0;
#X connect 14 0 19 1;
#X connect 15 0 4 0;
#X connect 17 0 7 1;
#X connect 18 0 20 0;
#X connect 19 0 21 0;
#X connect 20 0 1 0;
#X connect 21 0 9 0;
#X connect 22 0 1 1;
#X connect 23 0 24 0;
#X connect 23 1 27 0;
#X connect 24 0 25 0;
#X connect 25 0 26 0;
#X connect 26 0 12 0;
