#N canvas 635 526 450 300 10;
#X obj 16 61 clock clock;
#X obj 16 86 net-connector;
#X obj 16 114 record recorder mix;
#X obj 373 14 osc~ 440;
#X obj 373 82 dac~;
#X obj 394 38 tgl 15 0 empty empty empty 17 7 0 10 -262144 -1 -1 0
0.1;
#X obj 373 60 *~ 0;
#X obj 19 206 r clock/bpm;
#X obj 19 248 s mix/mixer/bpm;
#X floatatom 19 228 5 0 0 0 - - -, f 5;
#N canvas 1310 93 450 300 workspace 1;
#X msg 47 243 \; mix/slot/0;
#X msg 251 241 \; surface slot/0 \$1 \;;
#X msg 251 216 symbol bleep_crunch;
#X obj 306 38 fiddle~;
#X floatatom 306 61 5 0 0 0 - - -, f 5;
#X obj 306 16 r~ mix/master/right;
#X msg 308 85 rootnote = 59 \; 47 = 3 \; 45 49 53 = 5 9 10 1 \;;
#X msg 48 32 \; mix/mixer/3/bus-main 0 \; mix/mixer/3/bus-fx1 1 \;
fx-1/vol 0.5 \;;
#X msg 47 130 \; mix/slot/5/show bang \;;
#X msg 47 97 \; mix/slot/1/show bang \;;
#X connect 2 0 1 0;
#X connect 3 0 4 0;
#X connect 5 0 3 0;
#X restore 83 16 pd workspace;
#N canvas 1222 573 450 300 fx-bus 1;
#X obj 12 141 fx/bus-fx1;
#X obj 256 140 fx/bus-fx2;
#X obj 11 76 catch~ mix/bus-fx1;
#X obj 256 76 catch~ mix/bus-fx2;
#X obj 33 177 r fx-1/vol;
#X obj 12 203 *~ 0;
#X obj 12 265 throw~ mix/mixer/left;
#X obj 149 265 throw~ mix/mixer/right;
#X obj 69 114 r fx-1/select;
#N canvas 28 557 450 300 routing 1;
#X obj 13 13 r fx-one/sel/idx;
#X obj 13 35 s fx-1/select;
#X obj 240 210 s fx-1/down;
#X obj 93 269 s fx-1/fx-1;
#X obj 150 248 s fx-1/fx-2;
#X obj 93 81 r fx-one;
#X obj 93 188 unpack f f;
#X floatatom 150 229 5 0 0 0 - - -, f 5;
#X floatatom 93 230 5 0 0 0 - - -, f 5;
#X obj 93 103 t a a;
#X floatatom 213 170 5 0 0 0 - - -, f 5;
#X obj 213 148 expr !($f1 == -1 && $f2 == -1);
#X obj 213 189 t f f;
#X obj 93 145 spigot 0;
#X obj 150 208 * 127;
#X obj 93 210 * 127;
#X obj 292 9 r fx-two/sel/idx;
#X obj 292 31 s fx-2/select;
#X connect 0 0 1 0;
#X connect 5 0 9 0;
#X connect 6 0 15 0;
#X connect 6 1 14 0;
#X connect 7 0 4 0;
#X connect 8 0 3 0;
#X connect 9 0 13 0;
#X connect 9 1 11 0;
#X connect 10 0 12 0;
#X connect 11 0 10 0;
#X connect 12 0 13 1;
#X connect 12 1 2 0;
#X connect 13 0 6 0;
#X connect 14 0 7 0;
#X connect 15 0 8 0;
#X connect 16 0 17 0;
#X restore 14 10 pd routing;
#X obj 11 224 random-stereo-phase 3 8 mix-config-seed;
#X obj 313 113 r fx-2/select;
#X obj 187 192 random-stereo-phase 4 8 mix-config-seed;
#X connect 0 0 5 0;
#X connect 1 0 12 0;
#X connect 1 1 6 0;
#X connect 1 2 7 0;
#X connect 2 0 0 0;
#X connect 3 0 1 0;
#X connect 4 0 5 1;
#X connect 5 0 10 0;
#X connect 8 0 0 1;
#X connect 10 0 6 0;
#X connect 10 1 7 0;
#X connect 11 0 1 1;
#X connect 12 0 6 0;
#X connect 12 1 7 0;
#X restore 16 16 pd fx-bus;
#N canvas 2 50 450 300 noise 0;
#X obj 23 50 noise~;
#X obj 23 72 *~;
#X obj 23 94 *~;
#X obj 23 195 throw~ mix/mixer/left;
#X obj 187 195 throw~ mix/mixer/right;
#X obj 23 116 *~ 0.001;
#X connect 0 0 1 0;
#X connect 0 0 1 1;
#X connect 1 0 2 0;
#X connect 1 0 2 1;
#X connect 5 0 3 0;
#X connect 5 0 4 0;
#X restore 169 54 pd noise;
#N canvas 1077 128 450 300 init 0;
#X obj 14 23 loadbang;
#X msg 14 47 \; mix/slot/5 slots/acid mix 5 \; surface slot/5 acid
\; fx-1/vol 0.75 \; fx-2/vol 0.75 \; fx-2/down 1 \;;
#X connect 0 0 1 0;
#X restore 249 15 pd init;
#X obj 16 167 runner;
#X text 170 123 mixer \; mix/mixer/0 = signal in \; mix/mixer/left
mix/mixer/right = signal out \; mix/mixer/0/vol = 0-1 volume \; mix/mixer/0/bus-main
= 0/1 \; mix/mixer/0/bus-fx1 = 0/1 \; mix/mixer/0/bus-fx2 = 0/1 \;
fx-1/select 0 1 2 3 \; fx-1/vol 0-1 \; fx-1/down \; fx-1/fx-1 \; fx-1/fx-2
\;;
#X obj 16 141 midi-config;
#X connect 3 0 6 0;
#X connect 5 0 6 1;
#X connect 6 0 4 0;
#X connect 6 0 4 1;
#X connect 7 0 9 0;
#X connect 9 0 8 0;
