#N canvas 365 570 450 300 10;
#X obj 16 61 clock clock;
#X obj 16 86 net-connector;
#X obj 16 114 record recorder mix;
#X obj 373 14 osc~ 440;
#X obj 373 82 dac~;
#X obj 394 38 tgl 15 0 empty empty empty 17 7 0 10 -262144 -1 -1 0
0.1;
#X obj 373 60 *~ 0;
#X obj 19 206 r clock/bpm;
#X obj 19 248 s mix/mixer/bpm;
#X floatatom 19 228 5 0 0 0 - - -, f 5;
#N canvas 1024 95 450 300 workspace 1;
#X msg 24 116 \; mix/slot/0/show bang \;;
#X obj 23 22 hradio 15 1 0 5 empty empty empty 0 -8 0 10 -262144 -1
-1 1;
#X obj 23 42 - 1;
#X obj 23 64 s mix/mixer/0/snatch;
#X msg 87 173 \; mix/slot/0;
#X msg 244 95 \; surface slot/0 \$1 \;;
#X msg 242 50 symbol hello;
#X connect 1 0 2 0;
#X connect 2 0 3 0;
#X connect 6 0 5 0;
#X restore 83 17 pd workspace;
#N canvas 1123 175 450 300 fx-bus 0;
#X obj 12 81 fx/bus-fx1;
#X obj 256 80 fx/bus-fx2;
#X obj 11 16 catch~ mix/bus-fx1;
#X obj 256 16 catch~ mix/bus-fx2;
#X obj 33 117 r fx-1/vol;
#X obj 12 143 *~ 0;
#X obj 69 52 r fx-1/select;
#X obj 12 245 throw~ mix/mixer/left;
#X obj 149 245 throw~ mix/mixer/right;
#X connect 0 0 5 0;
#X connect 1 0 7 0;
#X connect 1 1 8 0;
#X connect 2 0 0 0;
#X connect 3 0 1 0;
#X connect 4 0 5 1;
#X connect 5 0 7 0;
#X connect 5 0 8 0;
#X connect 6 0 0 1;
#X restore 16 16 pd fx-bus;
#X text 170 123 mixer \; mix/mixer/0 = signal in \; mix/mixer/left
mix/mixer/right = signal out \; mix/mixer/0/vol = 0-1 volume \; mix/mixer/0/bus-main
= 0/1 \; mix/mixer/0/bus-fx1 = 0/1 \; mix/mixer/0/bus-fx2 = 0/1 \;
fx-1/select 0 1 2 3 \; fx-1/vol 0-1 \;;
#X obj 16 141 midi-config;
#N canvas 2 50 450 300 noise 0;
#X obj 23 50 noise~;
#X obj 23 72 *~;
#X obj 23 94 *~;
#X obj 23 195 throw~ mix/mixer/left;
#X obj 187 195 throw~ mix/mixer/right;
#X obj 23 116 *~ 0.001;
#X connect 0 0 1 0;
#X connect 0 0 1 1;
#X connect 1 0 2 0;
#X connect 1 0 2 1;
#X connect 5 0 3 0;
#X connect 5 0 4 0;
#X restore 223 58 pd noise;
#N canvas 1159 608 450 300 init 0;
#X msg 14 47 \; mix/slot/7 slots/acid mix 7;
#X obj 14 23 loadbang;
#X connect 1 0 0 0;
#X restore 249 15 pd init;
#X obj 16 167 runner;
#X connect 3 0 6 0;
#X connect 5 0 6 1;
#X connect 6 0 4 0;
#X connect 6 0 4 1;
#X connect 7 0 9 0;
#X connect 9 0 8 0;
