#N canvas 372 605 450 300 10;
#X obj 16 21 clock clock;
#X obj 16 46 net-connector;
#X obj 16 74 record recorder mix;
#X obj 373 14 osc~ 440;
#X obj 373 82 dac~;
#X obj 394 38 tgl 15 0 empty empty empty 17 7 0 10 -262144 -1 -1 0
0.1;
#X obj 373 60 *~ 0;
#X connect 3 0 6 0;
#X connect 5 0 6 1;
#X connect 6 0 4 0;
#X connect 6 0 4 1;
