#N canvas 784 318 450 306 10;
#X obj 17 17 inlet;
#X text 305 235 64 * 96;
#X obj 295 14 r clock/subtick;
#X obj 295 36 mod 6144;
#X obj 17 45 spigot 1;
#X obj 147 38 t f f;
#X obj 174 61 == 0;
#X obj 70 250 spigot 0;
#X obj 17 282 outlet;
#X obj 17 67 t f f;
#X obj 70 221 tabread \$0/fx-loop;
#X obj 184 180 tabwrite \$0/fx-loop;
#X obj 147 16 r \$1;
#X obj 184 148 f;
#X obj 295 98 t b f f;
#X obj 376 68 / 96;
#X obj 376 90 int;
#X obj 376 112 change;
#X floatatom 376 136 5 0 0 0 - - -, f 5;
#X obj 206 119 spigot 1;
#X obj 291 264 table \$0/fx-loop 6144;
#X connect 0 0 4 0;
#X connect 2 0 3 0;
#X connect 3 0 14 0;
#X connect 3 0 15 0;
#X connect 4 0 9 0;
#X connect 5 0 7 1;
#X connect 5 1 6 0;
#X connect 6 0 4 1;
#X connect 6 0 19 1;
#X connect 7 0 8 0;
#X connect 9 0 8 0;
#X connect 9 1 13 1;
#X connect 10 0 7 0;
#X connect 12 0 5 0;
#X connect 13 0 11 0;
#X connect 14 0 19 0;
#X connect 14 1 10 0;
#X connect 14 2 11 1;
#X connect 15 0 16 0;
#X connect 16 0 17 0;
#X connect 17 0 18 0;
#X connect 19 0 13 0;
