#N canvas 1035 321 450 300 10;
#N canvas 2 50 462 262 magic-freqency-converter 0;
#X obj 138 162 u_magic-freq;
#X obj 160 60 r goodnotes;
#X obj 160 82 list prepend notes;
#X obj 160 104 list trim;
#X obj 35 98 list trim;
#X obj 35 54 r bpm/r;
#X obj 35 77 list prepend bpm;
#X obj 138 17 r fx-1;
#X obj 228 184 s magic-ms;
#X obj 138 184 s magic-freq;
#X msg 307 103 octave \$1;
#X obj 307 81 r octave;
#X obj 138 39 int;
#X obj 307 26 loadbang;
#X msg 307 48 -3;
#X connect 0 0 9 0;
#X connect 0 1 8 0;
#X connect 1 0 2 0;
#X connect 2 0 3 0;
#X connect 3 0 0 0;
#X connect 4 0 0 0;
#X connect 5 0 6 0;
#X connect 6 0 4 0;
#X connect 7 0 12 0;
#X connect 10 0 0 0;
#X connect 11 0 10 0;
#X connect 12 0 0 0;
#X connect 13 0 14 0;
#X connect 14 0 0 0;
#X restore 18 20 pd magic-freqency-converter;
