#N canvas 113 125 1454 869 10;
#X declare -path ../s-abstractions/trunk;
#X declare -path ../pd-midi-guis;
#X declare -path ../lolPd;
#X declare -path ../list-abs;
#X obj 340 19 declare -path ../s-abstractions/trunk;
#X obj 35 19 s-midimonitor;
#X obj 340 41 declare -path ../pd-midi-guis;
#N canvas 364 128 450 300 route-volumes 0;
#X obj 15 117 spigot;
#X obj 31 78 expr $f1 < 8 && $f1 >= 0;
#X obj 15 139 / 127;
#X obj 31 40 t f f;
#X obj 15 181 s;
#X floatatom 89 180 5 0 0 0 - - -, f 5;
#X obj 15 15 ctlin;
#X msg 58 139 symbol mix/mixer/\$1/vol;
#X connect 0 0 2 0;
#X connect 1 0 0 1;
#X connect 2 0 4 0;
#X connect 2 0 5 0;
#X connect 3 0 1 0;
#X connect 3 1 7 0;
#X connect 6 0 0 0;
#X connect 6 1 3 0;
#X connect 7 0 4 1;
#X restore 36 146 pd route-volumes;
#X obj 40 188 vsl 15 128 0 1 0 0 empty mix/mixer/0/vol empty 0 -9 0
10 -262144 -1 -1 0 1;
#X obj 60 188 vsl 15 128 0 1 0 0 empty mix/mixer/1/vol empty 0 -9 0
10 -262144 -1 -1 0 1;
#X obj 80 188 vsl 15 128 0 1 0 0 empty mix/mixer/2/vol empty 0 -9 0
10 -262144 -1 -1 0 1;
#X obj 100 188 vsl 15 128 0 1 0 0 empty mix/mixer/3/vol empty 0 -9
0 10 -262144 -1 -1 0 1;
#X obj 120 188 vsl 15 128 0 1 0 0 empty mix/mixer/4/vol empty 0 -9
0 10 -262144 -1 -1 0 1;
#X obj 140 188 vsl 15 128 0 1 0 0 empty mix/mixer/5/vol empty 0 -9
0 10 -262144 -1 -1 0 1;
#X obj 160 188 vsl 15 128 0 1 0 0 empty mix/mixer/6/vol empty 0 -9
0 10 -262144 -1 -1 0 1;
#X obj 180 188 vsl 15 128 0 1 0 0 empty mix/mixer/7/vol empty 0 -9
0 10 -262144 -1 -1 8300 1;
#X obj 169 19 g_midi_settings;
#X obj 169 85 g_midi_toggle CYCLE;
#X text 256 90 CYCLE;
#N canvas 361 113 450 469 route-pace 0;
#X obj 15 117 spigot;
#X obj 31 40 t f f;
#X obj 15 347 s;
#X obj 15 15 ctlin;
#X msg 79 227 symbol mix/player/\$1/speed;
#X obj 31 78 expr $f1 < 24 && $f1 >= 16;
#X obj 15 161 * 3;
#X obj 15 205 change;
#X obj 15 183 int;
#X obj 15 139 / 128;
#X obj 79 204 - 16;
#X connect 0 0 9 0;
#X connect 1 0 5 0;
#X connect 1 1 10 0;
#X connect 3 0 0 0;
#X connect 3 1 1 0;
#X connect 4 0 2 1;
#X connect 5 0 0 1;
#X connect 6 0 8 0;
#X connect 7 0 2 0;
#X connect 8 0 7 0;
#X connect 9 0 6 0;
#X connect 10 0 4 0;
#X restore 143 146 pd route-pace;
#X obj 341 62 declare -path ../lolPd;
#N canvas 2 50 551 417 snatcher 0;
#X obj 37 47 hradio 15 1 0 5 empty empty empty 0 -8 0 10 -262144 -1
-1 0;
#X obj 37 67 - 1;
#X obj 37 89 s mix/mixer/0/snatch;
#X msg 323 178 -1;
#X obj 411 157 t b f;
#X obj 323 156 sel 0 1;
#X obj 411 180 0;
#X obj 323 134 r snatch-down;
#X obj 411 135 r snatch-val;
#X floatatom 323 214 5 0 0 0 - - -, f 5;
#X text 224 9 sound snatcher;
#X obj 122 127 s-midictl 61;
#X obj 36 127 s-midictl 60;
#X obj 208 127 s-midictl 62;
#X obj 36 213 pack f f f;
#X obj 122 179 t b f;
#X obj 208 179 t b f;
#X obj 36 149 / 127;
#X obj 122 149 / 127;
#X obj 208 149 / 127;
#X obj 36 235 expr $f1 + $f2 * 2 + $f3 * 4;
#X obj 36 257 - 1;
#X obj 36 336 list prepend;
#X obj 36 300 range 8;
#X obj 36 278 t b f;
#X msg 36 358 \; mix/mixer/\$2/snatch \$1 \;;
#X connect 0 0 1 0;
#X connect 1 0 2 0;
#X connect 3 0 9 0;
#X connect 4 0 6 0;
#X connect 4 1 6 1;
#X connect 5 0 3 0;
#X connect 5 1 6 0;
#X connect 6 0 9 0;
#X connect 7 0 5 0;
#X connect 8 0 4 0;
#X connect 9 0 24 0;
#X connect 11 0 18 0;
#X connect 12 0 17 0;
#X connect 13 0 19 0;
#X connect 14 0 20 0;
#X connect 15 0 14 0;
#X connect 15 1 14 1;
#X connect 16 0 14 0;
#X connect 16 1 14 2;
#X connect 17 0 14 0;
#X connect 18 0 15 0;
#X connect 19 0 16 0;
#X connect 20 0 21 0;
#X connect 21 0 24 0;
#X connect 22 0 25 0;
#X connect 23 0 22 0;
#X connect 24 0 23 0;
#X connect 24 1 22 1;
#X restore 341 144 pd snatcher;
#X obj 341 83 declare -path ../list-abs;
#X obj 311 196 midi-mapper 64 72;
#X obj 311 328 midi-mapper 32 40;
#X obj 311 350 t a a;
#X obj 338 374 unpack f f;
#X obj 395 397 == 0;
#X obj 338 426 pack f f;
#X msg 311 218 \; mix/mixer/\$1/snatch-enable \$2;
#X msg 311 492 \; mix/mixer/\$1/bus-fx1 \$2;
#X msg 338 448 \; mix/mixer/\$1/bus-main \$2;
#X obj 311 264 midi-mapper 48 56;
#X msg 311 286 \; mix/mixer/\$1/bus-fx2 \$2;
#X connect 19 0 25 0;
#X connect 20 0 21 0;
#X connect 21 0 26 0;
#X connect 21 1 22 0;
#X connect 22 0 24 0;
#X connect 22 1 23 0;
#X connect 23 0 24 1;
#X connect 24 0 27 0;
#X connect 28 0 29 0;
