#N canvas 2 48 450 300 10;
#X obj 15 117 spigot;
#X obj 15 139 / 127;
#X obj 31 40 t f f;
#X obj 15 15 ctlin;
#X obj 31 78 expr $f1 < \$2 && $f1 >= \$1;
#X obj 37 190 swap;
#X obj 37 212 pack f f;
#X obj 37 234 outlet;
#X obj 58 124 - \$1;
#X connect 0 0 1 0;
#X connect 1 0 5 0;
#X connect 2 0 4 0;
#X connect 2 1 8 0;
#X connect 3 0 0 0;
#X connect 3 1 2 0;
#X connect 4 0 0 1;
#X connect 5 0 6 0;
#X connect 5 1 6 1;
#X connect 6 0 7 0;
#X connect 8 0 5 1;
