#N canvas 807 273 450 300 10;
#X obj 26 18 inlet;
#X obj 26 110 fx-looper \$0/catch;
#X obj 26 40 t f f;
#X obj 53 63 == 127;
#X obj 53 85 s \$0/catch;
#X obj 26 132 outlet;
#X connect 0 0 2 0;
#X connect 1 0 5 0;
#X connect 2 0 1 0;
#X connect 2 1 3 0;
#X connect 3 0 4 0;
