#N canvas 824 294 566 538 10;
#X obj 15 117 spigot;
#X obj 15 15 ctlin;
#X obj 290 361 ctlout;
#X obj 31 40 t f f f;
#X obj 15 140 sel 127;
#X obj 15 185 in;
#X obj 15 162 f;
#X obj 15 287 sel 0 1;
#X obj 15 349 list append;
#X obj 15 329 list;
#X obj 117 326 list;
#X obj 117 348 list-filter;
#X obj 195 348 !=;
#X obj 40 387 t l;
#X obj 290 333 * 127;
#X obj 15 207 t f f;
#X obj 42 230 == 0;
#X obj 42 252 t f f;
#X obj 31 88 expr $f1 < \$2 && $f1 >= \$1;
#X obj 70 62 - \$1;
#X obj 98 418 swap;
#X obj 98 440 pack f f;
#X obj 98 462 outlet;
#X connect 0 0 4 0;
#X connect 1 0 0 0;
#X connect 1 1 3 0;
#X connect 1 2 2 2;
#X connect 3 0 18 0;
#X connect 3 1 2 1;
#X connect 3 2 19 0;
#X connect 4 0 6 0;
#X connect 5 0 15 0;
#X connect 6 0 5 0;
#X connect 7 0 9 0;
#X connect 7 1 10 0;
#X connect 8 0 13 0;
#X connect 9 0 8 0;
#X connect 10 0 11 0;
#X connect 11 0 13 0;
#X connect 11 1 12 0;
#X connect 12 0 11 1;
#X connect 13 0 9 1;
#X connect 13 0 10 1;
#X connect 13 0 5 1;
#X connect 14 0 2 0;
#X connect 15 0 7 0;
#X connect 15 1 16 0;
#X connect 16 0 17 0;
#X connect 17 0 20 0;
#X connect 17 1 14 0;
#X connect 18 0 0 1;
#X connect 19 0 6 1;
#X connect 19 0 8 1;
#X connect 19 0 12 1;
#X connect 19 0 20 1;
#X connect 20 0 21 0;
#X connect 20 1 21 1;
#X connect 21 0 22 0;
