#N canvas 1084 582 768 496 10;
#X obj 8 115 list split 1;
#X obj 8 182 s;
#X obj 8 159 list;
#X obj 8 137 t b a;
#X obj 15 93 print NET;
#X obj 212 11 r ip;
#X obj 251 55 print my-ip;
#X obj 8 71 netreceive 54877;
#X obj 212 296 netsend -u;
#X msg 247 192 connect 255.255.255.255 54877;
#X text 256 9 continuously broadcast my ip;
#X obj 212 126 metro 1000;
#X obj 212 192 list;
#X obj 212 100 list append 54877;
#X obj 212 214 list trim;
#X obj 101 113 == 0;
#X obj 212 147 spigot 1;
#X obj 338 380 sel 1;
#X obj 143 180 t a;
#X obj 212 33 t b a a;
#X floatatom 101 93 5 0 0 0 - - -, f 5;
#X floatatom 338 402 5 0 0 0 - - -, f 5;
#X obj 212 78 list prepend send ip;
#X obj 8 6 r surface;
#X obj 8 50 list trim;
#X obj 8 28 list prepend send;
#X obj 212 169 t b b;
#X obj 467 278 netsend -u;
#X obj 338 355 ||;
#X obj 467 300 t b f;
#X msg 467 192 connect 192.168.43.255 54877;
#X connect 0 0 3 0;
#X connect 0 1 2 1;
#X connect 2 0 1 0;
#X connect 3 0 2 0;
#X connect 3 1 1 1;
#X connect 5 0 19 0;
#X connect 7 0 0 0;
#X connect 7 0 4 0;
#X connect 7 1 20 0;
#X connect 8 0 28 0;
#X connect 9 0 8 0;
#X connect 11 0 16 0;
#X connect 12 0 14 0;
#X connect 13 0 12 1;
#X connect 14 0 8 0;
#X connect 14 0 27 0;
#X connect 15 0 16 1;
#X connect 16 0 26 0;
#X connect 17 0 18 0;
#X connect 17 0 21 0;
#X connect 18 0 11 0;
#X connect 19 0 9 0;
#X connect 19 0 30 0;
#X connect 19 1 22 0;
#X connect 19 2 6 0;
#X connect 20 0 15 0;
#X connect 22 0 13 0;
#X connect 23 0 25 0;
#X connect 24 0 7 0;
#X connect 25 0 24 0;
#X connect 26 0 12 0;
#X connect 27 0 29 0;
#X connect 28 0 17 0;
#X connect 29 0 28 0;
#X connect 29 1 28 1;
#X connect 30 0 27 0;
