#N canvas 526 557 450 300 10;
#X obj 9 11 r progression;
#X obj 9 33 t a a;
#X obj 36 57 print progression;
#X obj 283 37 r clock/tick;
#X obj 283 110 int;
#X floatatom 283 132 5 0 0 0 - - -, f 5;
#X obj 9 105 s mix/config/seed;
#X obj 283 88 / 64;
#X obj 9 83 route hash-int;
#X text 97 9 hash beats sections pattern rootnote section;
#X obj 90 128 list split 1;
#X obj 90 203 list;
#X obj 90 226 s;
#X msg 90 150 progression/\$1;
#X obj 90 172 t b a;
#X obj 316 59 r progression/beats;
#X obj 138 226 print;
#X obj 138 202 list append;
#X connect 0 0 1 0;
#X connect 1 0 8 0;
#X connect 1 1 2 0;
#X connect 3 0 7 0;
#X connect 4 0 5 0;
#X connect 7 0 4 0;
#X connect 8 0 6 0;
#X connect 8 1 10 0;
#X connect 10 0 13 0;
#X connect 10 1 11 1;
#X connect 10 1 17 1;
#X connect 11 0 12 0;
#X connect 13 0 14 0;
#X connect 14 0 11 0;
#X connect 14 1 12 1;
#X connect 14 1 17 0;
#X connect 15 0 7 1;
#X connect 17 0 16 0;
