#N canvas 641 355 450 300 10;
#X obj 9 11 r progression;
#X obj 9 33 t a a;
#X obj 36 55 print progression;
#X obj 273 84 r clock/tick;
#X obj 273 157 int;
#X obj 9 201 s mix/config/seed;
#X text 97 9 hash beats sections pattern rootnote section;
#X obj 306 106 r progression/beats;
#X obj 9 77 list trim;
#N canvas 2 48 450 300 sections 0;
#X obj 14 11 inlet;
#X obj 14 105 text set \$0/progressions;
#X obj 14 37 list split 1;
#X obj 14 82 list;
#X obj 14 59 t b f;
#X obj 14 128 text define \$0/progressions;
#X connect 0 0 2 0;
#X connect 2 0 4 0;
#X connect 2 1 3 1;
#X connect 3 0 1 0;
#X connect 4 0 3 0;
#X connect 4 1 1 1;
#X restore 66 158 pd sections;
#N canvas 413 342 450 370 progression 0;
#X obj 15 17 inlet;
#X obj 370 18 inlet;
#X obj 27 192 u_lookup;
#X obj 27 169 mod;
#X obj 15 39 t a a;
#X obj 42 62 list length;
#X obj 27 317 text get \$0/progressions;
#X obj 27 339 outlet;
#X obj 27 214 t f f;
#X floatatom 54 236 5 0 0 0 - - -, f 5;
#X obj 54 277 s progression/pattern;
#X obj 54 255 change;
#X connect 0 0 4 0;
#X connect 1 0 3 0;
#X connect 2 0 8 0;
#X connect 3 0 2 0;
#X connect 4 0 2 1;
#X connect 4 1 5 0;
#X connect 5 0 3 1;
#X connect 6 0 7 0;
#X connect 8 0 6 0;
#X connect 8 1 9 0;
#X connect 9 0 11 0;
#X connect 11 0 10 0;
#X restore 184 182 pd progression;
#X obj 9 99 route hash-int section pattern rootnote;
#X floatatom 182 144 5 0 0 0 - - -, f 5;
#X floatatom 280 181 5 0 0 0 - - -, f 5;
#X obj 273 135 / 16;
#N canvas 2 50 450 448 bleep 0;
#X obj 119 247 osc~;
#X obj 119 218 mtof;
#X obj 51 16 inlet;
#X obj 166 38 inlet;
#X obj 156 134 u_lookup;
#X obj 133 105 random;
#X obj 166 60 t a a;
#X obj 166 82 list length;
#X obj 119 164 +;
#X obj 127 12 r clock/tick;
#X msg 127 34 bang;
#X obj 310 295 *~;
#X obj 343 172 line~;
#X msg 343 150 1 \, 0 200;
#X obj 310 347 *~;
#X obj 310 369 dac~;
#X obj 395 187 inlet;
#X obj 119 189 - 1;
#X connect 0 0 11 0;
#X connect 1 0 0 0;
#X connect 2 0 8 1;
#X connect 3 0 6 0;
#X connect 4 0 8 0;
#X connect 5 0 4 0;
#X connect 6 0 7 0;
#X connect 6 1 4 1;
#X connect 7 0 5 1;
#X connect 8 0 17 0;
#X connect 9 0 10 0;
#X connect 10 0 5 0;
#X connect 10 0 13 0;
#X connect 11 0 14 0;
#X connect 12 0 11 1;
#X connect 13 0 12 0;
#X connect 14 0 15 0;
#X connect 14 0 15 1;
#X connect 16 0 14 1;
#X connect 17 0 1 0;
#X restore 358 186 pd bleep;
#X obj 184 204 t a a;
#X obj 403 164 tgl 15 0 empty empty empty 17 7 0 10 -262144 -1 -1 0
1;
#X obj 184 269 s GOODNOTES;
#X obj 182 163 s ROOTNOTE;
#X obj 268 225 list prepend set;
#X obj 268 247 list trim;
#X msg 268 269 5 7 8;
#X obj 182 123 + 1;
#X connect 0 0 1 0;
#X connect 1 0 8 0;
#X connect 1 1 2 0;
#X connect 3 0 14 0;
#X connect 4 0 10 1;
#X connect 4 0 13 0;
#X connect 7 0 14 1;
#X connect 8 0 11 0;
#X connect 10 0 16 0;
#X connect 11 0 5 0;
#X connect 11 1 9 0;
#X connect 11 2 10 0;
#X connect 11 3 23 0;
#X connect 12 0 19 0;
#X connect 14 0 4 0;
#X connect 16 0 18 0;
#X connect 16 1 20 0;
#X connect 17 0 15 2;
#X connect 20 0 21 0;
#X connect 21 0 22 0;
#X connect 23 0 12 0;
