#N canvas 449 121 676 671 10;
#X obj 326 181 r fx-1;
#X obj 326 226 r fx-2;
#X obj 326 248 s one/bits;
#X obj 326 203 s two/fuxx;
#X obj 49 428 *~ 1;
#X obj 226 413 tgl 15 0 empty empty empty 17 7 0 10 -262144 -1 -1 0
1;
#X obj 169 420 switch~;
#X obj 235 86 r down;
#X obj 49 149 *~ 0;
#X obj 187 149 *~ 1;
#X obj 235 108 == 0;
#X obj 187 323 *~ 1;
#X obj 169 387 == 2;
#X obj 50 358 *~ 0;
#N canvas 2 48 450 300 bitcrush~ 0;
#X obj 116 102 samphold~;
#X obj 174 78 phasor~;
#X obj 109 55 inlet~;
#X obj 104 136 outlet~;
#X obj 24 43 noise~;
#X obj 26 67 *~ 0.001;
#X obj 174 53 mtof;
#X obj 174 24 r \$0/bits;
#X connect 0 0 3 0;
#X connect 1 0 0 1;
#X connect 2 0 0 0;
#X connect 4 0 5 0;
#X connect 5 0 0 0;
#X connect 6 0 1 0;
#X connect 7 0 6 0;
#X restore 50 216 pd bitcrush~;
#N canvas 2 48 450 300 fuzz~ 0;
#X obj 37 169 -~;
#X obj 58 131 wrap~;
#X obj 37 75 inlet~;
#X obj 36 245 outlet~;
#X obj 37 195 /~ 30;
#X obj 37 101 *~ 30;
#X obj 36 218 s-jail;
#X obj 134 75 r \$0/fuxx;
#X connect 0 0 4 0;
#X connect 1 0 0 1;
#X connect 2 0 5 0;
#X connect 4 0 6 0;
#X connect 5 0 0 0;
#X connect 5 0 1 0;
#X connect 6 0 3 0;
#X connect 7 0 5 1;
#X connect 7 0 4 1;
#X restore 50 278 pd fuzz~;
#X obj 169 362 inlet;
#X obj 49 63 inlet~;
#X obj 50 451 outlet~;
#X connect 0 0 3 0;
#X connect 1 0 2 0;
#X connect 4 0 18 0;
#X connect 7 0 8 1;
#X connect 7 0 10 0;
#X connect 7 0 13 1;
#X connect 8 0 14 0;
#X connect 9 0 11 0;
#X connect 10 0 9 1;
#X connect 10 0 11 1;
#X connect 11 0 4 0;
#X connect 12 0 4 1;
#X connect 12 0 5 0;
#X connect 12 0 6 0;
#X connect 13 0 4 0;
#X connect 14 0 15 0;
#X connect 15 0 13 0;
#X connect 16 0 12 0;
#X connect 17 0 8 0;
#X connect 17 0 9 0;
