#N canvas 619 108 450 300 10;
#X declare -path ../../s-abstractions/trunk;
#X declare -path ../../lolPd;
#X obj 13 12 inlet~;
#X obj 14 266 outlet~;
#X obj 83 12 inlet;
#X obj 65 266 outlet~;
#X obj 185 271 declare -path ../../s-abstractions/trunk;
#X obj 184 246 declare -path ../../lolPd;
#X obj 274 50 magic-freq-converter fx-2;
#X obj 119 267 outlet~;
#X obj 81 117 fx/delay 1 fx-2;
#X obj 189 148 fx/reverb 2 fx-2;
#X obj 177 9 loadbang;
#X msg 177 31 0;
#N canvas 2 50 450 300 distortion 0;
#X obj 90 91 hsl 64 15 1 20 0 1 empty empty distortion -2 -8 0 10 -262144
-1 -1 0 1;
#X obj 30 115 e_foldover;
#X obj 170 67 * 20;
#X obj 170 45 / 127;
#X obj 30 39 inlet~;
#X obj 30 167 outlet~;
#X obj 170 23 r fx-2/distortion;
#X msg 98 48 0;
#X obj 98 26 loadbang;
#X connect 0 0 1 1;
#X connect 1 0 5 0;
#X connect 2 0 0 0;
#X connect 3 0 2 0;
#X connect 4 0 1 0;
#X connect 6 0 3 0;
#X connect 7 0 0 0;
#X connect 8 0 7 0;
#X restore 12 48 pd distortion;
#X connect 0 0 12 0;
#X connect 2 0 8 1;
#X connect 2 0 9 2;
#X connect 8 0 1 0;
#X connect 9 0 3 0;
#X connect 9 1 7 0;
#X connect 10 0 11 0;
#X connect 11 0 8 1;
#X connect 11 0 9 2;
#X connect 12 0 8 0;
#X connect 12 0 9 0;
#X connect 12 0 1 0;
