#N canvas 921 350 450 300 10;
#X declare -path ../../s-abstractions/trunk;
#X declare -path ../../lolPd;
#X obj 11 14 inlet~;
#X obj 11 256 outlet~;
#X obj 164 16 inlet;
#X obj 185 271 declare -path ../../s-abstractions/trunk;
#X obj 11 56 fx/bitcrush 0 fx-1;
#X obj 36 92 fx/delay 1 fx-1;
#X obj 82 122 fx/ringmod 2 fx-1;
#X obj 135 147 fx/filter 3 fx-1;
#N canvas 2 48 450 300 magic 0;
#X obj 138 212 u_magic-freq;
#X obj 173 123 list prepend notes;
#X obj 173 145 list trim;
#X obj 35 98 list trim;
#X obj 35 77 list prepend bpm;
#X msg 337 173 octave \$1;
#X obj 337 151 r octave;
#X obj 138 39 int;
#X obj 337 96 loadbang;
#X msg 337 118 -3;
#X obj 35 54 r clock/bpm;
#X obj 173 40 r GOODNOTES;
#X obj 138 17 r fx-1/fx-1;
#X obj 248 244 s fx-1/magic-ms;
#X obj 368 6 r ROOTNOTE;
#X obj 368 30 % 12;
#N canvas 724 219 450 300 convert-notes 0;
#X obj 10 8 inlet;
#X obj 288 10 inlet;
#X obj 10 154 outlet;
#X obj 10 86 each \$0/notes-done;
#X obj 10 131 gather \$0/notes-done;
#X obj 10 108 +;
#X connect 0 0 3 0;
#X connect 1 0 5 1;
#X connect 3 0 5 0;
#X connect 4 0 2 0;
#X connect 5 0 4 0;
#X restore 173 64 pd convert-notes;
#X obj 138 244 s fx1/magic-freq;
#X connect 0 0 17 0;
#X connect 0 1 13 0;
#X connect 1 0 2 0;
#X connect 2 0 0 0;
#X connect 3 0 0 0;
#X connect 4 0 3 0;
#X connect 5 0 0 0;
#X connect 6 0 5 0;
#X connect 7 0 0 0;
#X connect 8 0 9 0;
#X connect 9 0 0 0;
#X connect 10 0 4 0;
#X connect 11 0 16 0;
#X connect 12 0 7 0;
#X connect 14 0 15 0;
#X connect 15 0 16 1;
#X connect 16 0 1 0;
#X restore 294 60 pd magic frequency;
#X obj 184 246 declare -path ../../lolPd;
#X obj 208 179 fx/ghost 4 fx-1;
#X obj 246 205 fx/clip 5 fx-1;
#X text 264 7 TODO: make \$2/down re-route \; the source bus-main instead
\;;
#X connect 0 0 4 0;
#X connect 0 0 5 0;
#X connect 0 0 6 0;
#X connect 0 0 7 0;
#X connect 0 0 10 0;
#X connect 2 0 4 1;
#X connect 2 0 5 1;
#X connect 2 0 6 1;
#X connect 2 0 7 1;
#X connect 2 0 10 1;
#X connect 4 0 1 0;
#X connect 5 0 1 0;
#X connect 6 0 1 0;
#X connect 7 0 1 0;
#X connect 10 0 1 0;
