#N canvas 927 380 450 300 10;
#X obj 11 14 inlet~;
#X obj 11 256 outlet~;
#X obj 164 16 inlet;
#X obj 11 56 fx/bitcrush 0;
#X obj 11 106 fx/delay 1;
#X obj 11 156 fx/ringmod 2;
#X obj 11 206 fx/filter 3;
#X connect 0 0 3 0;
#X connect 2 0 3 1;
#X connect 2 0 4 1;
#X connect 2 0 5 1;
#X connect 2 0 6 1;
#X connect 3 0 4 0;
#X connect 4 0 5 0;
#X connect 5 0 6 0;
#X connect 6 0 1 0;
