#N canvas 918 335 450 300 10;
#X declare -path ../../s-abstractions/trunk;
#X declare -path ../../lolPd;
#X obj 11 14 inlet~;
#X obj 11 256 outlet~;
#X obj 164 16 inlet;
#X obj 185 271 declare -path ../../s-abstractions/trunk;
#X obj 11 56 fx/bitcrush 0 fx-1;
#X obj 36 92 fx/delay 1 fx-1;
#X obj 82 122 fx/ringmod 2 fx-1;
#X obj 135 147 fx/filter 3 fx-1;
#X obj 184 246 declare -path ../../lolPd;
#X obj 208 179 fx/ghost 4 fx-1;
#X obj 246 205 fx/clip 5 fx-1;
#X text 264 7 TODO: make \$2/down re-route \; the source bus-main instead
\;;
#X obj 274 50 magic-freq-converter fx-1;
#X obj 80 13 loadbang;
#X msg 80 35 0;
#X connect 0 0 4 0;
#X connect 0 0 5 0;
#X connect 0 0 6 0;
#X connect 0 0 7 0;
#X connect 0 0 9 0;
#X connect 2 0 4 1;
#X connect 2 0 5 1;
#X connect 2 0 6 1;
#X connect 2 0 7 1;
#X connect 2 0 9 1;
#X connect 4 0 1 0;
#X connect 5 0 1 0;
#X connect 6 0 1 0;
#X connect 7 0 1 0;
#X connect 9 0 1 0;
#X connect 13 0 14 0;
#X connect 14 0 4 1;
