#N canvas 660 222 490 463 10;
#X declare -path ../../s-abstractions;
#X obj 47 378 *~ 0;
#X obj 344 59 int;
#X text 79 17 delay;
#X obj 48 89 *~ 0;
#X obj 84 378 switch~;
#X obj 68 337 t f f;
#X obj 48 233 *~ 0;
#X obj 186 89 *~ 1;
#X obj 214 58 == 0;
#X obj 186 233 *~ 1;
#X obj 48 265 s-tanh~;
#X obj 48 210 *~ 1;
#N canvas 2 48 450 300 delay-unit 0;
#X obj 140 11 inlet~;
#X obj 169 271 outlet~;
#X obj 210 188 +~;
#X obj 225 160 *~;
#X obj 341 143 / 100;
#X obj 225 85 mtof;
#X obj 370 30 block~ 1;
#X obj 225 132 delread~ \$0-del;
#X obj 211 213 s-jail;
#X obj 316 189 table \$0-del 2000;
#X obj 211 242 delwrite~ \$0-del 2000;
#X obj 319 18 inlet;
#X msg 319 59 \; \$1 \$2 \;;
#X obj 319 96 print;
#X obj 319 38 list;
#X obj 225 107 expr 8000 / $f1;
#X obj 341 121 r \$0/feedback;
#X obj 225 42 r \$0/length;
#X obj 170 60 r \$0/ms;
#X connect 0 0 2 0;
#X connect 2 0 8 0;
#X connect 3 0 2 1;
#X connect 4 0 3 1;
#X connect 5 0 15 0;
#X connect 7 0 3 0;
#X connect 8 0 1 0;
#X connect 8 0 10 0;
#X connect 11 0 14 0;
#X connect 12 0 13 0;
#X connect 14 0 12 0;
#X connect 15 0 7 0;
#X connect 16 0 4 0;
#X connect 17 0 5 0;
#X connect 18 0 7 0;
#X restore 47 123 pd delay-unit;
#X obj 48 46 inlet~;
#X obj 48 400 outlet~;
#X obj 68 293 inlet;
#X obj 264 10 declare -path ../../s-abstractions;
#X obj 214 36 r \$2/down;
#X obj 68 315 == \$1;
#X obj 274 99 r \$2/fx-2;
#X obj 344 37 r \$2/fx-1;
#X obj 228 83 tgl 15 0 empty empty empty 17 7 0 10 -262144 -1 -1 1
1;
#X obj 344 80 s \$0/length;
#X obj 274 142 s \$0/feedback;
#X obj 345 261 r \$2/magic-ms;
#X obj 345 286 s \$0/ms;
#X connect 0 0 14 0;
#X connect 3 0 12 0;
#X connect 5 0 4 0;
#X connect 5 1 0 1;
#X connect 6 0 10 0;
#X connect 7 0 9 0;
#X connect 8 0 7 1;
#X connect 8 0 9 1;
#X connect 8 0 21 0;
#X connect 9 0 0 0;
#X connect 10 0 0 0;
#X connect 11 0 6 0;
#X connect 12 0 11 0;
#X connect 13 0 3 0;
#X connect 13 0 7 0;
#X connect 15 0 18 0;
#X connect 17 0 3 1;
#X connect 17 0 6 1;
#X connect 17 0 8 0;
#X connect 18 0 5 0;
#X connect 19 0 23 0;
#X connect 20 0 1 0;
#X connect 24 0 25 0;
