#N canvas 2 48 490 463 10;
#X obj 47 378 *~ 0;
#X obj 344 80 s d/length;
#X obj 274 142 s d/feedback;
#X obj 274 99 r fx-2;
#X obj 344 37 r fx-1;
#X obj 68 315 == 1;
#X obj 344 59 int;
#X text 79 17 delay;
#X obj 48 89 *~ 0;
#X obj 84 378 switch~;
#X obj 271 66 s d/ms;
#X obj 271 41 r magic-ms;
#X obj 68 337 t f f;
#X obj 48 233 *~ 0;
#X obj 186 89 *~ 1;
#X obj 214 58 == 0;
#X obj 186 233 *~ 1;
#X obj 48 265 s-tanh~;
#X obj 48 210 *~ 1;
#N canvas 2 50 450 300 delay-unit 0;
#X obj 140 11 inlet~;
#X obj 169 271 outlet~;
#X obj 210 188 +~;
#X obj 225 160 *~;
#X obj 341 143 / 100;
#X obj 225 85 mtof;
#X obj 370 30 block~ 1;
#X obj 225 132 delread~ \$0-del;
#X obj 211 213 s-jail;
#X obj 316 189 table \$0-del 2000;
#X obj 211 242 delwrite~ \$0-del 2000;
#X obj 319 18 inlet;
#X msg 319 59 \; \$1 \$2 \;;
#X obj 319 96 print;
#X obj 319 38 list;
#X obj 225 107 expr 8000 / $f1;
#X obj 341 121 r \$0/feedback;
#X obj 225 42 r \$0/length;
#X obj 170 66 r \$1/ms;
#X connect 0 0 2 0;
#X connect 2 0 8 0;
#X connect 3 0 2 1;
#X connect 4 0 3 1;
#X connect 5 0 15 0;
#X connect 7 0 3 0;
#X connect 8 0 1 0;
#X connect 8 0 10 0;
#X connect 11 0 14 0;
#X connect 12 0 13 0;
#X connect 14 0 12 0;
#X connect 15 0 7 0;
#X connect 16 0 4 0;
#X connect 17 0 5 0;
#X connect 18 0 7 0;
#X restore 47 123 pd delay-unit;
#X obj 48 46 inlet~;
#X obj 48 400 outlet~;
#X obj 214 36 r down;
#X obj 68 293 inlet;
#X connect 0 0 21 0;
#X connect 3 0 2 0;
#X connect 4 0 6 0;
#X connect 5 0 12 0;
#X connect 8 0 19 0;
#X connect 11 0 10 0;
#X connect 12 0 9 0;
#X connect 12 1 0 1;
#X connect 13 0 17 0;
#X connect 14 0 16 0;
#X connect 15 0 14 1;
#X connect 15 0 16 1;
#X connect 16 0 0 0;
#X connect 17 0 0 0;
#X connect 18 0 13 0;
#X connect 19 0 18 0;
#X connect 20 0 8 0;
#X connect 20 0 14 0;
#X connect 22 0 8 1;
#X connect 22 0 13 1;
#X connect 22 0 15 0;
#X connect 23 0 5 0;
