#N canvas 2 48 505 581 10;
#X obj 52 230 mtof;
#X obj 42 266 vcf~;
#X obj 120 222 * 5;
#X obj 43 287 *~;
#X obj 42 431 *~ 1;
#X obj 120 200 / 127;
#X obj 52 198 int;
#X obj 259 416 tgl 15 0 empty empty empty 17 7 0 10 -262144 -1 -1 1
1;
#X text 65 29 filter;
#X obj 162 413 switch~;
#X obj 42 152 *~ 0;
#X obj 42 326 *~ 0;
#X obj 180 152 *~ 1;
#X obj 208 121 == 0;
#X obj 180 326 *~ 1;
#X obj 42 66 inlet~;
#X obj 43 454 outlet~;
#X obj 162 365 inlet;
#X obj 208 99 r \$2/down;
#X obj 120 178 r \$2/fx-2;
#X obj 52 176 r \$2/fx-1;
#X obj 162 390 == \$1;
#X connect 0 0 1 1;
#X connect 1 0 3 0;
#X connect 2 0 1 2;
#X connect 2 0 3 1;
#X connect 3 0 11 0;
#X connect 4 0 16 0;
#X connect 5 0 2 0;
#X connect 6 0 0 0;
#X connect 10 0 1 0;
#X connect 11 0 4 0;
#X connect 12 0 14 0;
#X connect 13 0 12 1;
#X connect 13 0 14 1;
#X connect 14 0 4 0;
#X connect 15 0 10 0;
#X connect 15 0 12 0;
#X connect 17 0 21 0;
#X connect 18 0 10 1;
#X connect 18 0 11 1;
#X connect 18 0 13 0;
#X connect 19 0 5 0;
#X connect 20 0 6 0;
#X connect 21 0 4 1;
#X connect 21 0 7 0;
#X connect 21 0 9 0;
