#N canvas 2 48 505 581 10;
#X obj 52 230 mtof;
#X obj 42 266 vcf~;
#X obj 120 222 * 5;
#X obj 43 287 *~;
#X obj 42 431 *~ 1;
#X obj 52 176 r fx-1;
#X obj 120 178 r fx-2;
#X obj 162 390 == 0;
#X obj 120 200 / 127;
#X obj 52 198 int;
#X obj 259 416 tgl 15 0 empty empty empty 17 7 0 10 -262144 -1 -1 0
1;
#X text 65 29 filter;
#X obj 162 413 switch~;
#X obj 208 99 r down;
#X obj 42 152 *~ 0;
#X obj 42 326 *~ 0;
#X obj 180 152 *~ 1;
#X obj 208 121 == 0;
#X obj 180 326 *~ 1;
#X obj 42 66 inlet~;
#X obj 43 454 outlet~;
#X obj 162 365 inlet;
#X connect 0 0 1 1;
#X connect 1 0 3 0;
#X connect 2 0 1 2;
#X connect 2 0 3 1;
#X connect 3 0 15 0;
#X connect 4 0 20 0;
#X connect 5 0 9 0;
#X connect 6 0 8 0;
#X connect 7 0 4 1;
#X connect 7 0 10 0;
#X connect 7 0 12 0;
#X connect 8 0 2 0;
#X connect 9 0 0 0;
#X connect 13 0 14 1;
#X connect 13 0 15 1;
#X connect 13 0 17 0;
#X connect 14 0 1 0;
#X connect 15 0 4 0;
#X connect 16 0 18 0;
#X connect 17 0 16 1;
#X connect 17 0 18 1;
#X connect 18 0 4 0;
#X connect 19 0 14 0;
#X connect 19 0 16 0;
#X connect 21 0 7 0;
