#N canvas 255 150 832 844 10;
#X obj 24 9 inlet~;
#X obj 105 54 sel 0;
#X obj 23 173 tabwrite~ \$0/table;
#X obj 105 75 t b b;
#X msg 132 98 stop;
#X obj 23 246 s-spooky~ \$1/spook \$0/table;
#X obj 487 100 / 127;
#X obj 487 121 * 2000;
#X obj 487 142 s \$1/spook/location;
#X obj 332 25 table \$0/table 88200;
#X obj 34 33 s~ \$0/raw;
#X obj 88 503 r~ \$0/raw;
#X obj 23 522 *~;
#X obj 88 524 *~;
#X obj 186 376 == 0;
#X obj 186 354 r \$2/down;
#X obj 23 633 *~ 0;
#X obj 85 632 tgl 15 0 empty empty empty 17 7 0 10 -262144 -1 -1 1
1;
#X obj 88 663 switch~;
#X obj 44 588 inlet;
#X obj 44 610 == \$1;
#X obj 23 655 outlet~;
#X obj 487 75 r \$2/fx-1;
#X obj 311 78 r \$2/fx-2;
#X obj 105 10 r clock/tick;
#X obj 311 196 s \$1/spook/detune;
#X obj 311 172 * 100;
#X obj 311 100 moses 32;
#X obj 356 121 moses 96;
#X obj 401 142 - 96;
#X msg 356 143 0;
#X obj 311 140 - 32;
#X obj 105 33 mod 16;
#X connect 0 0 2 0;
#X connect 0 0 10 0;
#X connect 1 0 3 0;
#X connect 3 0 2 0;
#X connect 3 1 4 0;
#X connect 4 0 2 0;
#X connect 5 0 12 0;
#X connect 6 0 7 0;
#X connect 7 0 8 0;
#X connect 11 0 13 0;
#X connect 12 0 16 0;
#X connect 13 0 16 0;
#X connect 14 0 13 1;
#X connect 15 0 14 0;
#X connect 15 0 12 1;
#X connect 16 0 21 0;
#X connect 19 0 20 0;
#X connect 20 0 16 1;
#X connect 20 0 17 0;
#X connect 20 0 18 0;
#X connect 22 0 6 0;
#X connect 23 0 27 0;
#X connect 24 0 32 0;
#X connect 26 0 25 0;
#X connect 27 0 31 0;
#X connect 27 1 28 0;
#X connect 28 0 30 0;
#X connect 28 1 29 0;
#X connect 29 0 26 0;
#X connect 30 0 26 0;
#X connect 31 0 26 0;
#X connect 32 0 1 0;
