#N canvas 644 281 450 300 10;
#X obj 50 221 freeverb~;
#X obj 110 131 loadbang;
#X msg 110 153 dry 0 \, wet 1;
#X obj 50 62 inlet~;
#X msg 286 136 damping \$1;
#X msg 261 81 roomsize \$1;
#X obj 292 29 inlet;
#X obj 50 253 outlet~;
#X obj 111 62 inlet~;
#X obj 102 253 outlet~;
#X connect 0 0 7 0;
#X connect 0 1 9 0;
#X connect 1 0 2 0;
#X connect 2 0 0 0;
#X connect 3 0 0 0;
#X connect 4 0 0 0;
#X connect 5 0 0 0;
#X connect 8 0 0 1;
