#N canvas 497 520 450 300 10;
#X obj 50 221 freeverb~;
#X obj 110 131 loadbang;
#X msg 110 153 dry 0 \, wet 1;
#X obj 50 62 inlet~;
#X msg 286 136 damping \$1;
#X msg 200 70 roomsize \$1;
#X obj 50 253 outlet~;
#X obj 111 62 inlet~;
#X obj 102 253 outlet~;
#X obj 200 16 r \$2/fx-1;
#X obj 288 90 r \$2/fx-2;
#X obj 254 262 *~ 0;
#X obj 291 262 switch~;
#X obj 275 221 t f f;
#X obj 275 177 inlet;
#X obj 275 199 == \$1;
#X obj 200 38 / 127;
#X obj 289 111 / 127;
#X floatatom 190 109 5 0 0 0 - - -, f 5;
#X connect 0 0 6 0;
#X connect 0 1 8 0;
#X connect 1 0 2 0;
#X connect 2 0 0 0;
#X connect 3 0 0 0;
#X connect 4 0 0 0;
#X connect 5 0 0 0;
#X connect 7 0 0 1;
#X connect 9 0 16 0;
#X connect 10 0 17 0;
#X connect 13 0 12 0;
#X connect 13 1 11 1;
#X connect 14 0 15 0;
#X connect 15 0 13 0;
#X connect 16 0 5 0;
#X connect 16 0 18 0;
#X connect 17 0 4 0;
