#N canvas 425 149 885 653 10;
#X obj 64 214 *~;
#X obj 79 192 osc~;
#X obj 65 491 *~ 0;
#X obj 127 490 tgl 15 0 empty empty empty 17 7 0 10 -262144 -1 -1 1
1;
#X text 80 7 ringmod;
#X obj 79 148 int;
#X obj 79 170 mtof;
#X obj 138 132 / 127;
#X obj 188 209 *~;
#X obj 203 143 int;
#X obj 203 165 mtof;
#X obj 203 187 phasor~;
#X obj 138 154 t f f;
#X obj 202 239 expr 1 - $f1;
#X obj 187 263 *~;
#X obj 64 247 *~;
#X obj 109 521 switch~;
#X obj 64 96 *~ 0;
#X obj 411 110 *~ 1;
#X obj 459 69 == 0;
#X obj 411 284 *~ 1;
#X obj 64 358 *~ 0;
#X obj 63 27 inlet~;
#X obj 66 553 outlet~;
#X obj 86 446 inlet;
#X obj 459 47 r \$2/down;
#X obj 203 120 r \$2/fx-1;
#X obj 138 110 r \$2/fx-2;
#X obj 86 468 == \$1;
#X obj 482 125 tgl 15 0 empty empty empty 17 7 0 10 -262144 -1 -1 0
1;
#X obj 79 125 r \$2/fx-1;
#X connect 0 0 15 0;
#X connect 1 0 0 1;
#X connect 2 0 23 0;
#X connect 5 0 6 0;
#X connect 6 0 1 0;
#X connect 7 0 12 0;
#X connect 8 0 14 0;
#X connect 9 0 10 0;
#X connect 10 0 11 0;
#X connect 11 0 8 1;
#X connect 12 0 15 1;
#X connect 12 1 13 0;
#X connect 13 0 14 1;
#X connect 14 0 21 0;
#X connect 15 0 21 0;
#X connect 17 0 0 0;
#X connect 17 0 8 0;
#X connect 18 0 20 0;
#X connect 19 0 18 1;
#X connect 19 0 20 1;
#X connect 19 0 29 0;
#X connect 20 0 2 0;
#X connect 21 0 2 0;
#X connect 22 0 17 0;
#X connect 22 0 18 0;
#X connect 24 0 28 0;
#X connect 25 0 17 1;
#X connect 25 0 19 0;
#X connect 25 0 21 1;
#X connect 26 0 9 0;
#X connect 27 0 7 0;
#X connect 28 0 2 1;
#X connect 28 0 3 0;
#X connect 28 0 16 0;
#X connect 30 0 5 0;
