#N canvas 288 121 592 753 10;
#X obj 20 414 outlet~;
#X obj 20 7 inlet~;
#X obj 42 270 == 0;
#X obj 21 294 *~ 1;
#X obj 111 374 *~ 0;
#X obj 111 157 f;
#X obj 138 157 + 1;
#X obj 195 85 / 4;
#X obj 111 179 / 1;
#X obj 225 107 + 1;
#X obj 111 201 int;
#X obj 111 223 change;
#X obj 111 35 t f f;
#X obj 138 56 sel 0;
#X obj 138 78 0;
#X obj 111 135 metro 500;
#X msg 111 305 bang;
#X obj 195 63 expr 60000 / $f1;
#X obj 111 274 sel 0;
#X obj 111 245 t f f;
#X obj 138 100 t f f;
#X obj 398 104 sel 1;
#X text 375 9 snatch the sound when finger down;
#X obj 31 38 s~ \$0/pre;
#X obj 378 30 r~ \$0/pre;
#X obj 111 327 tabplay~ \$0/snippet;
#X obj 379 155 tabwrite~ \$0/snippet;
#X obj 379 175 table \$0/snippet 88200;
#X obj 132 350 r \$1/snatch-down;
#X obj 111 13 r \$1/snatch-down;
#X obj 225 85 r \$1/snatch-val;
#X obj 398 60 r \$1/snatch-down;
#X obj 195 41 r \$2;
#X obj 321 212 r \$1/snatch;
#X obj 348 367 sel -1;
#X obj 321 460 s \$1/snatch-down;
#X obj 381 390 s \$1/snatch-val;
#X obj 321 346 t f f;
#X obj 321 414 >= 0;
#X obj 321 436 change;
#X obj 321 294 spigot 0;
#X obj 366 237 r \$1/snatch-enable;
#X obj 366 259 t f f;
#X obj 393 281 sel 0;
#X msg 393 303 0;
#X obj 393 325 s \$1/snatch-down;
#X connect 1 0 23 0;
#X connect 1 0 3 0;
#X connect 2 0 3 1;
#X connect 3 0 0 0;
#X connect 4 0 0 0;
#X connect 5 0 6 0;
#X connect 5 0 8 0;
#X connect 6 0 5 1;
#X connect 7 0 15 1;
#X connect 8 0 10 0;
#X connect 9 0 8 1;
#X connect 10 0 11 0;
#X connect 11 0 19 0;
#X connect 12 0 15 0;
#X connect 12 1 13 0;
#X connect 13 0 14 0;
#X connect 14 0 20 0;
#X connect 15 0 5 0;
#X connect 16 0 25 0;
#X connect 17 0 7 0;
#X connect 18 1 16 0;
#X connect 19 0 2 0;
#X connect 19 1 18 0;
#X connect 20 0 2 0;
#X connect 20 1 5 1;
#X connect 21 0 26 0;
#X connect 24 0 26 0;
#X connect 25 0 4 0;
#X connect 28 0 4 1;
#X connect 29 0 12 0;
#X connect 30 0 9 0;
#X connect 31 0 21 0;
#X connect 32 0 17 0;
#X connect 33 0 40 0;
#X connect 34 1 36 0;
#X connect 37 0 38 0;
#X connect 37 1 34 0;
#X connect 38 0 39 0;
#X connect 39 0 35 0;
#X connect 40 0 37 0;
#X connect 41 0 42 0;
#X connect 42 0 40 1;
#X connect 42 1 43 0;
#X connect 43 0 44 0;
#X connect 44 0 45 0;
