#N canvas 966 105 542 476 10;
#X declare -path ../../pd-acid-core;
#X declare -path ../../pd-acid-core/common;
#X declare -path ../../pd-acid-core/blockhead;
#X declare -path ../../pd-acid-core/rjlib/rj;
#X obj 276 6 declare -path ../../pd-acid-core;
#X obj 370 135 r \$1/config/seed;
#X obj 397 230 s \$1/acid/\$2/seed;
#X obj 218 161 r clock/tick;
#X obj 218 273 s \$1/acid/\$2/tick;
#X obj 18 430 throw~ \$1/mixer/\$2;
#X obj 370 207 t b f;
#X obj 370 254 s \$1/acid/\$2/makenew;
#X obj 371 354 s \$1/acid/\$2/notes;
#X obj 18 346 catch~ \$1/acid/\$2/out;
#X obj 371 385 r ROOTNOTE;
#X obj 371 428 s \$1/acid/\$2/rootnote;
#X obj 371 288 r GOODNOTES;
#X obj 276 28 declare -path ../../pd-acid-core/common;
#X obj 22 89 hsl 128 15 0 127 0 1 empty empty acid/cutoff -2 -8 0 10
-262144 -1 -1 7500 1;
#X obj 22 195 hsl 128 15 0 127 0 1 empty empty acid/rez -2 -8 0 10
-262144 -1 -1 500 1;
#X obj 19 250 hradio 15 1 1 6 empty empty empty 0 -8 0 10 -262144 -1
-1 1;
#X obj 19 270 - 2;
#X obj 19 109 s \$1/acid/\$2/cutoff;
#X obj 19 215 s \$1/acid/\$2/rez;
#X floatatom 370 187 5 0 0 0 - - -, f 5;
#X floatatom 218 253 5 0 0 0 - - -, f 5;
#X obj 276 49 declare -path ../../pd-acid-core/blockhead;
#X obj 276 69 declare -path ../../pd-acid-core/rjlib/rj;
#X obj 18 318 acid-core \$1/acid/\$2;
#X obj 226 386 list prepend set;
#X obj 226 408 list trim;
#X msg 226 430 2 9 6;
#N canvas 2 50 450 300 clock-dividier 0;
#X obj 12 12 inlet;
#X obj 12 94 u_tick-multiplier;
#X obj 165 12 r clock/bpm;
#X floatatom 165 34 5 0 0 0 - - -, f 5;
#X msg 165 53 bpm \$1;
#X obj 73 14 inlet;
#X obj 73 36 * 2;
#X msg 73 58 multiple \$1;
#X obj 12 116 outlet;
#X connect 0 0 1 0;
#X connect 1 0 8 0;
#X connect 2 0 3 0;
#X connect 3 0 4 0;
#X connect 4 0 1 0;
#X connect 5 0 6 0;
#X connect 6 0 7 0;
#X connect 7 0 1 0;
#X restore 218 228 pd clock-dividier;
#X obj 19 290 s \$1/acid/\$2/globaloctave;
#X obj 19 9 r \$1/player/\$2/param-1;
#X obj 182 105 r \$1/acid/\$2/param-2;
#N canvas 2 50 450 300 octave-speed 0;
#X obj 12 7 inlet;
#X obj 363 271 outlet;
#X obj 12 267 outlet;
#X obj 12 59 t f f;
#X obj 12 151 mod 42;
#X obj 139 83 / 42;
#X obj 12 29 moses 127;
#X obj 12 173 / 42;
#X obj 12 195 * 4;
#X obj 12 217 int;
#X obj 12 239 change;
#X obj 139 105 int;
#X obj 139 127 change;
#X msg 139 169 2 \$1;
#X obj 139 191 pow;
#X obj 139 149 - 1;
#X connect 0 0 6 0;
#X connect 3 0 4 0;
#X connect 3 1 5 0;
#X connect 4 0 7 0;
#X connect 5 0 11 0;
#X connect 6 0 3 0;
#X connect 7 0 8 0;
#X connect 8 0 9 0;
#X connect 9 0 10 0;
#X connect 10 0 2 0;
#X connect 11 0 12 0;
#X connect 12 0 15 0;
#X connect 13 0 14 0;
#X connect 14 0 1 0;
#X connect 15 0 13 0;
#X restore 182 127 pd octave-speed;
#X obj 218 183 t f b;
#X obj 317 205 1;
#X obj 19 138 r \$1/acid/\$2/rez-set;
#N canvas 2 50 450 300 rez 0;
#X obj 9 18 inlet;
#X obj 9 82 + 1;
#X obj 9 104 mod 3;
#X obj 9 40 sel 127;
#X obj 9 62 f;
#X obj 9 208 outlet;
#X obj 9 186 * 5;
#X obj 9 126 sel 2;
#X msg 9 148 4;
#X connect 0 0 3 0;
#X connect 1 0 2 0;
#X connect 2 0 4 1;
#X connect 2 0 7 0;
#X connect 3 0 4 0;
#X connect 4 0 1 0;
#X connect 6 0 5 0;
#X connect 7 0 8 0;
#X connect 7 1 6 0;
#X connect 8 0 6 0;
#X restore 19 160 pd rez;
#X obj 19 31 midi-single-looper;
#X floatatom 371 408 5 0 0 0 - - -, f 5;
#X obj 370 157 f;
#X obj 371 310 list prepend 0;
#X obj 371 332 list trim;
#X connect 1 0 39 0;
#X connect 3 0 33 0;
#X connect 6 0 7 0;
#X connect 6 1 2 0;
#X connect 9 0 5 0;
#X connect 10 0 38 0;
#X connect 12 0 25 0;
#X connect 12 0 40 0;
#X connect 14 0 18 0;
#X connect 15 0 19 0;
#X connect 16 0 17 0;
#X connect 17 0 29 0;
#X connect 20 0 6 0;
#X connect 21 0 4 0;
#X connect 25 0 26 0;
#X connect 26 0 27 0;
#X connect 28 0 21 0;
#X connect 30 0 37 0;
#X connect 31 0 32 0;
#X connect 32 0 16 0;
#X connect 32 1 34 1;
#X connect 33 0 28 0;
#X connect 33 1 34 0;
#X connect 34 0 28 1;
#X connect 35 0 36 0;
#X connect 36 0 15 0;
#X connect 37 0 14 0;
#X connect 38 0 11 0;
#X connect 39 0 20 0;
#X connect 40 0 41 0;
#X connect 41 0 8 0;
