#N canvas 2 48 450 300 10;
#X text 11 7 args: channel-index channel-count seed-name;
#X obj 11 111 random-stereo-phase \$2 \$3 \$4;
#X obj 195 133 throw~ \$1/mixer/right;
#X obj 11 133 throw~ \$1/mixer/left;
#X obj 11 37 catch~ \$1/mixer/\$2;
#X obj 128 37 r \$1/mixer/\$1/vol;
#X obj 11 89 *~ 1;
#X obj 11 62 snatch \$1/mixer/\$2 \$1/mixer/bpm;
#X connect 1 0 3 0;
#X connect 1 1 2 0;
#X connect 4 0 7 0;
#X connect 5 0 6 1;
#X connect 6 0 1 0;
#X connect 7 0 6 0;
