#N canvas 414 267 450 300 10;
#X text 11 7 args: channel-index channel-count seed-name;
#X obj 11 173 random-stereo-phase \$2 \$3 \$4;
#X obj 175 195 throw~ \$1/mixer/right;
#X obj 11 195 throw~ \$1/mixer/left;
#X obj 11 37 catch~ \$1/mixer/\$2;
#X obj 11 119 *~ 1;
#X obj 11 62 fx/snatch \$1/mixer/\$2 \$1/mixer/bpm;
#N canvas 881 427 450 300 fx-sends 0;
#X obj 10 11 inlet~;
#X obj 10 233 *~ 1;
#X obj 10 265 outlet~;
#X obj 61 11 r \$1/mixer/\$2/bus-main;
#X obj 100 233 *~ 0;
#X obj 220 234 *~ 0;
#X obj 121 62 r \$1/mixer/\$2/bus-fx1;
#X obj 241 111 r \$1/mixer/\$2/bus-fx2;
#X obj 100 255 throw~ \$1/bus-fx1;
#X obj 219 255 throw~ \$1/bus-fx2;
#X connect 0 0 1 0;
#X connect 0 0 4 0;
#X connect 0 0 5 0;
#X connect 1 0 2 0;
#X connect 3 0 1 1;
#X connect 4 0 8 0;
#X connect 5 0 9 0;
#X connect 6 0 4 1;
#X connect 7 0 5 1;
#X restore 11 146 pd fx-sends;
#X obj 32 87 r \$1/mixer/\$2/vol;
#X connect 1 0 3 0;
#X connect 1 1 2 0;
#X connect 4 0 6 0;
#X connect 5 0 7 0;
#X connect 6 0 5 0;
#X connect 7 0 1 0;
#X connect 8 0 5 1;
