#N canvas 1260 341 450 321 10;
#X declare -stdpath readanysf;
#X obj 36 98 loadbang;
#X msg 126 150 open;
#X obj 126 172 list append \$6;
#X obj 126 194 list trim;
#X obj 36 287 throw~ \$1/mixer/\$2;
#X obj 230 86 r clock/tick;
#X obj 230 128 mod \$5;
#X text 33 9 args: mixer-name \; slot-num \; num-slots \; bpm \; loop-length-beats
\; filename \;;
#X obj 230 197 spigot 0;
#X obj 36 120 t b b;
#X obj 36 243 readanysf~;
#X obj 282 41 declare -stdpath readanysf;
#X msg 182 285 1;
#X floatatom 231 287 5 0 0 0 - - -, f 5;
#X obj 182 263 route ready float;
#X msg 151 95 speed \$1;
#X obj 230 107 * 1;
#X obj 151 65 t f f;
#N canvas 956 244 450 403 speed 0;
#X msg 14 227 2 \$1;
#X obj 14 249 pow;
#X obj 14 180 mod 3;
#X obj 14 205 - 1;
#X obj 14 159 + 1;
#X obj 14 4 inlet;
#X obj 15 311 outlet;
#X obj 100 228 r clock/tick;
#X obj 100 250 t b;
#X obj 15 286 1;
#X obj 14 90 * 3;
#X obj 14 134 change;
#X obj 14 112 int;
#X obj 14 26 midi-single-looper;
#X obj 14 48 / 127;
#X connect 0 0 1 0;
#X connect 1 0 9 1;
#X connect 2 0 3 0;
#X connect 3 0 0 0;
#X connect 4 0 2 0;
#X connect 5 0 13 0;
#X connect 7 0 8 0;
#X connect 8 0 9 0;
#X connect 9 0 6 0;
#X connect 10 0 12 0;
#X connect 11 0 4 0;
#X connect 12 0 11 0;
#X connect 13 0 14 0;
#X connect 14 0 10 0;
#X restore 151 39 pd speed;
#X obj 36 267 *~ 2;
#X obj 151 13 r \$1/player/\$2/param-1;
#X msg 230 173 time_seek \$1;
#X msg 24 187 play \, loop 1;
#X obj 230 150 expr $f1 * 59.96 / \$4;
#X obj 36 142 delay 500;
#X connect 0 0 9 0;
#X connect 1 0 2 0;
#X connect 2 0 3 0;
#X connect 3 0 10 0;
#X connect 5 0 16 0;
#X connect 6 0 23 0;
#X connect 8 0 10 0;
#X connect 9 0 24 0;
#X connect 9 1 1 0;
#X connect 10 0 19 0;
#X connect 10 1 19 0;
#X connect 10 2 14 0;
#X connect 12 0 8 1;
#X connect 14 0 12 0;
#X connect 14 1 13 0;
#X connect 15 0 10 0;
#X connect 16 0 6 0;
#X connect 17 0 15 0;
#X connect 17 1 16 1;
#X connect 18 0 17 0;
#X connect 19 0 4 0;
#X connect 20 0 18 0;
#X connect 21 0 8 0;
#X connect 22 0 10 0;
#X connect 23 0 21 0;
#X connect 24 0 22 0;
