#N canvas 1084 460 450 300 10;
#X obj 9 238 lib/loop-switcher;
#X obj 9 53 table \$0/sample;
#N canvas 221 164 450 300 loader 1;
#X obj 11 11 loadbang;
#X msg 11 33 bang;
#X obj 11 121 soundfiler;
#X obj 11 99 list trim;
#X obj 11 143 s \$0/samples;
#X obj 11 77 list append \$6 \$0/sample;
#X msg 11 55 read -resize -maxsize 8e+06;
#X connect 0 0 1 0;
#X connect 1 0 6 0;
#X connect 2 0 4 0;
#X connect 3 0 2 0;
#X connect 5 0 3 0;
#X connect 6 0 5 0;
#X restore 9 30 pd loader;
#X obj 9 216 list trim;
#X obj 10 271 throw~ \$1/mixer/\$2;
#X text 121 238 num_slices slice_index pitch(midi) ramp-in(ms);
#X obj 9 92 r clock/tick;
#X obj 92 121 r \$0/samples;
#X obj 9 169 spigot 0;
#X msg 92 143 1;
#X msg 9 140 \$1 60 0.01;
#X obj 9 114 mod \$5;
#X obj 9 194 list prepend \$0/sample \$5;
#X text 7 7 args: namespace channel channels seed beats soundfile;
#X connect 0 0 4 0;
#X connect 3 0 0 0;
#X connect 6 0 11 0;
#X connect 7 0 9 0;
#X connect 8 0 12 0;
#X connect 9 0 8 1;
#X connect 10 0 8 0;
#X connect 11 0 10 0;
#X connect 12 0 3 0;
