#N canvas 1079 184 450 321 10;
#X declare -stdpath readanysf;
#X obj 36 98 loadbang;
#X msg 36 150 open;
#X obj 36 172 list append \$6;
#X obj 36 194 list trim;
#X obj 36 267 throw~ \$1/mixer/\$2;
#X obj 230 106 r clock/tick;
#X obj 230 128 mod \$5;
#X text 33 9 args: mixer-name \; slot-num \; num-slots \; bpm \; loop-length-beats
\; filename \;;
#X obj 230 150 expr $f1 * 60 / \$4;
#X obj 185 207 spigot 0;
#X obj 36 120 t b b;
#X obj 36 243 readanysf~;
#X obj 282 11 declare -stdpath readanysf;
#X msg 182 285 1;
#X floatatom 231 287 5 0 0 0 - - -, f 5;
#X obj 182 263 route ready float;
#X msg 230 173 stop \, time_seek \$1 \, play;
#X connect 0 0 10 0;
#X connect 1 0 2 0;
#X connect 2 0 3 0;
#X connect 3 0 11 0;
#X connect 5 0 6 0;
#X connect 6 0 8 0;
#X connect 8 0 16 0;
#X connect 9 0 11 0;
#X connect 10 0 1 0;
#X connect 11 0 4 0;
#X connect 11 1 4 0;
#X connect 11 2 15 0;
#X connect 13 0 9 1;
#X connect 15 0 13 0;
#X connect 15 1 14 0;
#X connect 16 0 9 0;
