#N canvas 1072 149 450 321 10;
#X declare -stdpath readanysf;
#X obj 36 98 loadbang;
#X msg 36 150 open;
#X obj 36 172 list append \$6;
#X obj 36 194 list trim;
#X obj 36 287 throw~ \$1/mixer/\$2;
#X obj 230 86 r clock/tick;
#X obj 230 128 mod \$5;
#X text 33 9 args: mixer-name \; slot-num \; num-slots \; bpm \; loop-length-beats
\; filename \;;
#X obj 230 150 expr $f1 * 60 / \$4;
#X obj 230 197 spigot 0;
#X obj 36 120 t b b;
#X obj 36 243 readanysf~;
#X obj 282 11 declare -stdpath readanysf;
#X msg 182 285 1;
#X floatatom 231 287 5 0 0 0 - - -, f 5;
#X obj 182 263 route ready float;
#X msg 230 173 time_seek \$1 \, play;
#X msg 132 172 loop 1;
#X obj 151 13 r \$1/player/\$2/speed;
#X msg 151 95 speed \$1;
#X obj 230 107 * 1;
#X obj 151 55 t f f;
#N canvas 2 48 450 300 speed 0;
#X msg 14 107 2 \$1;
#X obj 14 129 pow;
#X obj 14 60 mod 3;
#X obj 14 85 - 1;
#X obj 14 39 + 1;
#X obj 14 14 inlet;
#X obj 15 191 outlet;
#X obj 100 108 r clock/tick;
#X obj 100 130 t b;
#X obj 15 166 1;
#X connect 0 0 1 0;
#X connect 1 0 9 1;
#X connect 2 0 3 0;
#X connect 3 0 0 0;
#X connect 4 0 2 0;
#X connect 5 0 4 0;
#X connect 7 0 8 0;
#X connect 8 0 9 0;
#X connect 9 0 6 0;
#X restore 151 34 pd speed;
#X obj 36 267 *~ 2;
#X connect 0 0 10 0;
#X connect 1 0 2 0;
#X connect 2 0 3 0;
#X connect 3 0 11 0;
#X connect 5 0 20 0;
#X connect 6 0 8 0;
#X connect 8 0 16 0;
#X connect 9 0 11 0;
#X connect 10 0 1 0;
#X connect 10 1 17 0;
#X connect 11 0 23 0;
#X connect 11 1 23 0;
#X connect 11 2 15 0;
#X connect 13 0 9 1;
#X connect 15 0 13 0;
#X connect 15 1 14 0;
#X connect 16 0 9 0;
#X connect 17 0 11 0;
#X connect 18 0 22 0;
#X connect 19 0 11 0;
#X connect 20 0 6 0;
#X connect 21 0 19 0;
#X connect 21 1 20 1;
#X connect 22 0 21 0;
#X connect 23 0 4 0;
