#N canvas 1260 341 450 525 10;
#X declare -stdpath readanysf;
#X obj 36 98 loadbang;
#X msg 126 150 open;
#X obj 126 172 list append \$6;
#X obj 126 194 list trim;
#X obj 36 467 throw~ \$1/mixer/\$2;
#X obj 230 86 r clock/tick;
#X obj 230 128 mod \$5;
#X text 33 9 args: mixer-name \; slot-num \; num-slots \; bpm \; loop-length-beats
\; filename \;;
#X obj 230 197 spigot 0;
#X obj 36 120 t b b;
#X obj 36 243 readanysf~;
#X obj 282 41 declare -stdpath readanysf;
#X msg 182 285 1;
#X floatatom 231 287 5 0 0 0 - - -, f 5;
#X obj 182 263 route ready float;
#X msg 151 95 speed \$1;
#X obj 230 107 * 1;
#X obj 151 65 t f f;
#N canvas 957 249 450 300 speed 0;
#X msg 14 187 2 \$1;
#X obj 14 209 pow;
#X obj 14 140 mod 3;
#X obj 14 165 - 1;
#X obj 14 119 + 1;
#X obj 14 4 inlet;
#X obj 15 271 outlet;
#X obj 100 188 r clock/tick;
#X obj 100 210 t b;
#X obj 15 246 1;
#X obj 14 50 * 3;
#X obj 14 94 change;
#X obj 14 72 int;
#X connect 0 0 1 0;
#X connect 1 0 9 1;
#X connect 2 0 3 0;
#X connect 3 0 0 0;
#X connect 4 0 2 0;
#X connect 5 0 10 0;
#X connect 7 0 8 0;
#X connect 8 0 9 0;
#X connect 9 0 6 0;
#X connect 10 0 12 0;
#X connect 11 0 4 0;
#X connect 12 0 11 0;
#X restore 151 39 pd speed;
#X obj 36 267 *~ 2;
#X obj 134 335 r \$1/player/\$2/param-1;
#X msg 230 173 time_seek \$1;
#X msg 36 187 play \, loop 1;
#X obj 230 150 expr $f1 * 59.96 / \$4;
#X obj 36 142 delay 500;
#N canvas 560 271 450 300 clip 1;
#X obj 16 15 inlet~;
#X obj 16 155 spigot 0;
#X obj 142 17 inlet;
#X msg 16 177 bang;
#X msg 16 221 1 \, 0 \$1;
#X obj 16 243 line~;
#X obj 16 265 outlet~;
#N canvas 2 50 450 300 guts 0;
#X obj 14 17 inlet~;
#X obj 272 17 inlet;
#X obj 42 66 outlet;
#X obj 15 41 bonk~;
#X obj 272 41 switch~;
#X connect 0 0 3 0;
#X connect 1 0 4 0;
#X connect 3 1 2 0;
#X restore 16 124 pd guts;
#X obj 142 61 != 1;
#X obj 142 39 t f f;
#X obj 230 111 *;
#X obj 263 31 r clock/bpm;
#X obj 263 53 expr 60000 / $f1;
#X obj 16 199 1000;
#X obj 142 83 t f f f;
#X obj 181 159 sel 1;
#X msg 181 181 1;
#X floatatom 274 88 5 0 0 0 - - -, f 5;
#X connect 0 0 7 0;
#X connect 1 0 3 0;
#X connect 2 0 9 0;
#X connect 3 0 13 0;
#X connect 4 0 5 0;
#X connect 5 0 6 0;
#X connect 7 0 1 0;
#X connect 8 0 14 0;
#X connect 9 0 8 0;
#X connect 9 1 10 0;
#X connect 10 0 13 1;
#X connect 11 0 12 0;
#X connect 12 0 10 1;
#X connect 12 0 17 0;
#X connect 13 0 4 0;
#X connect 14 0 7 1;
#X connect 14 1 1 1;
#X connect 14 2 15 0;
#X connect 15 0 16 0;
#X connect 16 0 5 0;
#X restore 95 410 pd clip;
#X obj 36 440 *~;
#X obj 171 361 loadbang;
#X msg 171 383 1;
#X connect 0 0 9 0;
#X connect 1 0 2 0;
#X connect 2 0 3 0;
#X connect 3 0 10 0;
#X connect 5 0 16 0;
#X connect 6 0 23 0;
#X connect 8 0 10 0;
#X connect 9 0 24 0;
#X connect 9 1 1 0;
#X connect 10 0 19 0;
#X connect 10 0 25 0;
#X connect 10 1 19 0;
#X connect 10 1 25 0;
#X connect 10 2 14 0;
#X connect 12 0 8 1;
#X connect 14 0 12 0;
#X connect 14 1 13 0;
#X connect 15 0 10 0;
#X connect 16 0 6 0;
#X connect 17 0 15 0;
#X connect 17 1 16 1;
#X connect 18 0 17 0;
#X connect 19 0 26 0;
#X connect 20 0 25 1;
#X connect 21 0 8 0;
#X connect 22 0 10 0;
#X connect 23 0 21 0;
#X connect 24 0 22 0;
#X connect 25 0 26 1;
#X connect 26 0 4 0;
#X connect 27 0 28 0;
#X connect 28 0 25 1;
