#N canvas 716 125 693 696 10;
#X text 26 36 plays one chunk of sound from a table;
#X obj 15 15 inlet;
#X msg 15 563 set \$1;
#X obj 15 650 outlet~;
#X obj 266 154 mtof;
#X obj 266 176 /;
#X msg 301 132 60;
#X obj 301 154 mtof;
#X obj 301 110 loadbang;
#X obj 42 246 expr size("$s1");
#X obj 161 442 vline~;
#X obj 161 476 *~;
#X obj 161 549 +~;
#X text 189 552 chunk inset;
#X obj 42 290 /;
#X obj 15 223 t a a;
#X obj 161 331 /;
#X obj 42 268 t f f;
#X obj 161 353 * 1000;
#X obj 161 376 /;
#X msg 161 418 0 \, 1 \$1;
#X obj 107 197 mod;
#X obj 107 174 swap;
#X obj 42 143 t f f f;
#X obj 266 200 * 44100;
#X obj 161 528 -~;
#X obj 15 71 unpack s f f f f;
#X obj 292 308 t f f;
#X obj 161 397 + 0;
#X text 191 477 chunk width (samples);
#X obj 266 222 t f f;
#X obj 269 448 +;
#X obj 292 263 swap;
#X obj 292 286 expr ($f1 * ($f2 / 1000));
#X obj 376 595 vline~;
#X obj 15 629 *~;
#X obj 127 527 *;
#X obj 541 13 inlet cut;
#X msg 493 335 0 \$1;
#X obj 139 100 t f f f f f;
#X obj 493 313 f;
#X msg 493 292 bang;
#X text 26 51 tablename num_slices slice_index pitch(midi) ramp-in(ms)
;
#X obj 376 553 pack f f;
#X obj 43 314 t f f;
#X msg 376 574 0 \, 1 \$2 \, 0 0 \$1;
#X text 428 539 ramp-in;
#X text 323 544 duration;
#X obj 15 601 tabread4~;
#X connect 1 0 26 0;
#X connect 2 0 48 0;
#X connect 4 0 5 0;
#X connect 5 0 24 0;
#X connect 6 0 7 0;
#X connect 7 0 5 1;
#X connect 8 0 6 0;
#X connect 9 0 17 0;
#X connect 10 0 11 0;
#X connect 11 0 25 0;
#X connect 12 0 48 0;
#X connect 14 0 44 0;
#X connect 15 0 2 0;
#X connect 15 1 9 0;
#X connect 16 0 18 0;
#X connect 17 0 14 0;
#X connect 17 1 16 0;
#X connect 18 0 19 0;
#X connect 19 0 28 0;
#X connect 19 0 43 0;
#X connect 20 0 10 0;
#X connect 21 0 36 1;
#X connect 22 0 21 0;
#X connect 22 1 21 1;
#X connect 23 0 14 1;
#X connect 23 1 19 1;
#X connect 23 2 22 0;
#X connect 24 0 30 0;
#X connect 25 0 12 0;
#X connect 26 0 15 0;
#X connect 26 1 23 0;
#X connect 26 2 22 1;
#X connect 26 3 4 0;
#X connect 26 4 39 0;
#X connect 27 0 25 1;
#X connect 27 1 31 1;
#X connect 28 0 20 0;
#X connect 30 0 16 1;
#X connect 30 1 32 1;
#X connect 31 0 11 1;
#X connect 32 0 33 0;
#X connect 32 1 33 1;
#X connect 33 0 27 0;
#X connect 34 0 35 1;
#X connect 35 0 3 0;
#X connect 36 0 12 1;
#X connect 37 0 41 0;
#X connect 38 0 34 0;
#X connect 39 0 28 1;
#X connect 39 1 32 0;
#X connect 39 2 43 1;
#X connect 39 4 40 1;
#X connect 40 0 38 0;
#X connect 41 0 40 0;
#X connect 43 0 45 0;
#X connect 44 0 36 0;
#X connect 44 1 31 0;
#X connect 45 0 34 0;
#X connect 48 0 35 0;
